<svg width="440" height="183" viewBox="0 0 440 183" fill="none" xmlns="http://www.w3.org/2000/svg">
<path d="M11.0625 57.8438C11.0625 55.8438 10.9688 54.25 10.7812 53.0625C10.5938 51.875 10.1562 50.9688 9.46875 50.3438C8.84375 49.6562 7.90625 49.1875 6.65625 48.9375C5.46875 48.6875 3.8125 48.4688 1.6875 48.2812V46.125H30.5625C37.25 46.125 43.25 46.9375 48.5625 48.5625C53.875 50.125 58.3438 52.4062 61.9688 55.4062C65.6562 58.4062 68.4688 62.0938 70.4062 66.4688C72.3438 70.8438 73.3125 75.7812 73.3125 81.2812C73.3125 86.7188 72.2812 91.7812 70.2188 96.4688C68.1562 101.156 65.25 105.094 61.5 108.281C58.1875 111.031 53.9062 113.188 48.6562 114.75C43.4688 116.25 37.9062 117 31.9688 117H1.6875V115.031C3.75 114.906 5.375 114.719 6.5625 114.469C7.8125 114.156 8.75 113.656 9.375 112.969C10.0625 112.219 10.5 111.25 10.6875 110.062C10.9375 108.875 11.0625 107.344 11.0625 105.469V57.8438ZM21.9375 108.656C21.9375 110.406 22.3125 111.594 23.0625 112.219C23.875 112.781 25.3125 113.062 27.375 113.062C32.1875 113.062 36.2188 112.75 39.4688 112.125C42.7812 111.438 45.8125 110.281 48.5625 108.656C57.3125 103.656 61.6875 94.7812 61.6875 82.0312C61.6875 76.1562 60.5625 70.9375 58.3125 66.375C56.125 61.8125 52.875 58.0938 48.5625 55.2188C45.9375 53.4688 42.9062 52.1875 39.4688 51.375C36.0938 50.5625 32.0625 50.1562 27.375 50.1562C25.25 50.1562 23.8125 50.4375 23.0625 51C22.3125 51.5625 21.9375 52.6562 21.9375 54.2812V108.656ZM136.312 117H78.5625V115.031C80.5 114.906 82.0625 114.688 83.25 114.375C84.5 114.062 85.4375 113.562 86.0625 112.875C86.75 112.188 87.2188 111.25 87.4688 110.062C87.7188 108.875 87.8438 107.344 87.8438 105.469V57.8438C87.8438 55.9688 87.7188 54.4375 87.4688 53.25C87.2812 52.0625 86.8438 51.125 86.1562 50.4375C85.4688 49.75 84.5 49.25 83.25 48.9375C82.0625 48.625 80.5 48.4062 78.5625 48.2812V46.125H135.375L135.562 61.5H133.031C132.531 59.0625 131.969 57.125 131.344 55.6875C130.719 54.1875 129.812 53.0312 128.625 52.2188C127.5 51.4062 125.969 50.875 124.031 50.625C122.156 50.375 119.719 50.25 116.719 50.25H102.281C100.844 50.25 99.875 50.4688 99.375 50.9062C98.9375 51.3438 98.7188 52.3438 98.7188 53.9062V77.625H115.125C117.312 77.625 119.094 77.5 120.469 77.25C121.844 77 122.938 76.5312 123.75 75.8438C124.625 75.0938 125.281 74.0625 125.719 72.75C126.156 71.4375 126.562 69.6875 126.938 67.5H129.469V92.3438H126.938C126.562 90.0938 126.156 88.3125 125.719 87C125.281 85.625 124.656 84.5938 123.844 83.9062C123.031 83.1562 121.938 82.6562 120.562 82.4062C119.188 82.1562 117.375 82.0312 115.125 82.0312H98.7188V108.469C98.7188 109.531 98.7812 110.312 98.9062 110.812C99.0312 111.312 99.25 111.688 99.5625 111.938C100.062 112.25 101.25 112.531 103.125 112.781C105.062 112.969 107.344 113.062 109.969 113.062H112.969C116.781 113.062 119.969 112.875 122.531 112.5C125.156 112.125 127.375 111.406 129.188 110.344C131.062 109.281 132.688 107.844 134.062 106.031C135.438 104.219 136.781 101.844 138.094 98.9062H141.188L136.312 117ZM217.125 48.2812C215.875 48.3438 214.812 48.5 213.938 48.75C213.125 48.9375 212.375 49.4062 211.688 50.1562C211 50.8438 210.312 51.8438 209.625 53.1562C209 54.4062 208.219 56.0938 207.281 58.2188L183.562 118.219H181.969L155.625 59.4375C154.438 57 153.406 55.0625 152.531 53.625C151.719 52.1875 150.906 51.0938 150.094 50.3438C149.344 49.5312 148.5 49 147.562 48.75C146.688 48.4375 145.594 48.2812 144.281 48.2812V46.125H172.875V48.2812L169.688 48.375C166.375 48.5625 164.719 49.6875 164.719 51.75C164.719 52.1875 164.781 52.6875 164.906 53.25C165.031 53.75 165.25 54.4375 165.562 55.3125C165.875 56.1875 166.312 57.2812 166.875 58.5938C167.438 59.9062 168.188 61.5625 169.125 63.5625L185.25 99.75L200.906 60.5625C201.656 58.875 202.188 57.3438 202.5 55.9688C202.875 54.5938 203.062 53.4688 203.062 52.5938C203.062 52.0938 202.906 51.5625 202.594 51C202.281 50.375 201.875 49.9062 201.375 49.5938C200.688 49.0938 199.938 48.7812 199.125 48.6562C198.375 48.4688 197.094 48.3438 195.281 48.2812V46.125H217.125V48.2812ZM283.5 118.219L236.156 59.3438V101.25C236.156 104 236.281 106.25 236.531 108C236.844 109.688 237.375 111.031 238.125 112.031C238.875 113.031 239.906 113.75 241.219 114.188C242.531 114.625 244.219 114.906 246.281 115.031V117H221.156V115.031C223.344 114.844 225.094 114.562 226.406 114.188C227.781 113.75 228.812 113.031 229.5 112.031C230.25 111.031 230.75 109.688 231 108C231.25 106.25 231.375 104 231.375 101.25V54.1875C230.312 52.9375 229.406 51.9375 228.656 51.1875C227.906 50.375 227.156 49.7812 226.406 49.4062C225.656 48.9688 224.875 48.6875 224.062 48.5625C223.25 48.375 222.281 48.2812 221.156 48.2812V46.125H239.438L280.594 97.9688V61.875C280.594 55.375 279.562 51.375 277.5 49.875C276.688 49.375 275.781 49.0312 274.781 48.8438C273.844 48.5938 272.375 48.4062 270.375 48.2812V46.125H295.406V48.2812C293.406 48.4062 291.906 48.625 290.906 48.9375C289.969 49.25 289.156 49.6562 288.469 50.1562C286.344 51.5312 285.281 55.4375 285.281 61.875V118.219H283.5ZM318.469 50.625C315.469 50.625 313 50.7812 311.062 51.0938C309.188 51.4062 307.625 52.0625 306.375 53.0625C305.188 54.0625 304.219 55.4688 303.469 57.2812C302.781 59.0312 302.125 61.375 301.5 64.3125H298.875L299.531 46.125H359.906L360.562 64.3125H357.938C357.312 61.375 356.625 59.0312 355.875 57.2812C355.188 55.4688 354.25 54.0625 353.062 53.0625C351.875 52.0625 350.312 51.4062 348.375 51.0938C346.438 50.7812 343.938 50.625 340.875 50.625H335.156V105.469C335.156 107.406 335.281 108.969 335.531 110.156C335.781 111.344 336.25 112.281 336.938 112.969C337.688 113.656 338.719 114.156 340.031 114.469C341.406 114.719 343.188 114.906 345.375 115.031V117H314.25V115.031C316.438 114.906 318.188 114.719 319.5 114.469C320.812 114.156 321.812 113.625 322.5 112.875C323.25 112.062 323.719 110.969 323.906 109.594C324.156 108.219 324.281 106.406 324.281 104.156V50.625H318.469ZM437.719 48.2812C436.281 48.3438 435 48.5625 433.875 48.9375C432.812 49.3125 431.719 49.9688 430.594 50.9062C429.531 51.7812 428.375 53 427.125 54.5625C425.938 56.0625 424.531 58 422.906 60.375L407.062 84.5625V105.469C407.062 107.469 407.188 109.094 407.438 110.344C407.688 111.531 408.188 112.469 408.938 113.156C409.75 113.844 410.875 114.312 412.312 114.562C413.75 114.812 415.656 114.969 418.031 115.031V117H385.312V115.031C387.75 114.906 389.688 114.719 391.125 114.469C392.562 114.156 393.625 113.625 394.312 112.875C395.062 112.125 395.531 111.062 395.719 109.688C395.969 108.312 396.094 106.469 396.094 104.156V85.5938L382.125 65.0625C379.438 61.25 377.25 58.25 375.562 56.0625C373.938 53.8125 372.531 52.125 371.344 51C370.156 49.875 369.062 49.1562 368.062 48.8438C367.125 48.4688 366.031 48.2812 364.781 48.2812V46.125H394.688V48.2812H392.062C388.75 48.4688 387.094 49.4688 387.094 51.2812C387.094 52.7188 387.719 54.3438 388.969 56.1562L404.812 79.875L420.094 55.6875C421.094 54.25 421.594 52.9375 421.594 51.75C421.594 50.5 421.062 49.625 420 49.125C418.938 48.5625 417 48.2812 414.188 48.2812V46.125H437.719V48.2812Z" fill="black"/>
<path d="M80.536 138.44L69.784 173H64.72L56.608 148.184C56.512 147.912 56.416 147.616 56.32 147.296C56.24 146.976 56.16 146.632 56.08 146.264C56 146.632 55.912 146.976 55.816 147.296C55.736 147.616 55.648 147.912 55.552 148.184L47.368 173H42.304L31.552 138.44H36.256C36.736 138.44 37.136 138.56 37.456 138.8C37.792 139.024 38.016 139.336 38.128 139.736L44.608 161.888C44.736 162.368 44.856 162.888 44.968 163.448C45.08 164.008 45.192 164.592 45.304 165.2C45.416 164.592 45.536 164.008 45.664 163.448C45.808 162.872 45.96 162.352 46.12 161.888L53.536 139.736C53.648 139.416 53.872 139.12 54.208 138.848C54.544 138.576 54.944 138.44 55.408 138.44H57.04C57.536 138.44 57.936 138.568 58.24 138.824C58.544 139.064 58.776 139.368 58.936 139.736L66.328 161.888C66.488 162.352 66.632 162.856 66.76 163.4C66.904 163.928 67.032 164.488 67.144 165.08C67.256 164.488 67.36 163.928 67.456 163.4C67.568 162.856 67.688 162.352 67.816 161.888L74.272 139.736C74.368 139.384 74.584 139.08 74.92 138.824C75.272 138.568 75.68 138.44 76.144 138.44H80.536ZM106.789 168.464L106.765 173H85.2134V138.44H106.765V142.976H90.8534V153.392H103.573V157.784H90.8534V168.464H106.789ZM125.446 168.56C126.71 168.56 127.774 168.416 128.638 168.128C129.518 167.824 130.23 167.416 130.774 166.904C131.334 166.392 131.734 165.792 131.974 165.104C132.23 164.4 132.358 163.648 132.358 162.848C132.358 161.216 131.798 159.936 130.678 159.008C129.574 158.064 127.822 157.592 125.422 157.592H118.486V168.56H125.446ZM118.486 142.832V153.632H124.102C126.502 153.632 128.294 153.168 129.478 152.24C130.662 151.312 131.254 149.976 131.254 148.232C131.254 146.328 130.694 144.952 129.574 144.104C128.47 143.256 126.734 142.832 124.366 142.832H118.486ZM124.366 138.44C126.574 138.44 128.462 138.656 130.03 139.088C131.598 139.504 132.886 140.104 133.894 140.888C134.902 141.672 135.638 142.632 136.102 143.768C136.582 144.888 136.822 146.152 136.822 147.56C136.822 148.376 136.694 149.168 136.438 149.936C136.198 150.688 135.814 151.4 135.286 152.072C134.774 152.728 134.126 153.32 133.342 153.848C132.558 154.376 131.63 154.816 130.558 155.168C135.454 156.208 137.902 158.808 137.902 162.968C137.902 164.44 137.622 165.792 137.062 167.024C136.518 168.24 135.718 169.296 134.662 170.192C133.622 171.072 132.334 171.76 130.798 172.256C129.262 172.752 127.51 173 125.542 173H112.87V138.44H124.366ZM162.301 144.344C162.125 144.632 161.941 144.848 161.749 144.992C161.557 145.12 161.317 145.184 161.029 145.184C160.725 145.184 160.381 145.056 159.997 144.8C159.629 144.544 159.165 144.264 158.605 143.96C158.061 143.64 157.413 143.352 156.661 143.096C155.909 142.824 155.013 142.688 153.973 142.688C153.013 142.688 152.165 142.808 151.429 143.048C150.709 143.288 150.101 143.624 149.605 144.056C149.109 144.488 148.733 145 148.477 145.592C148.237 146.168 148.117 146.8 148.117 147.488C148.117 148.368 148.349 149.104 148.813 149.696C149.277 150.272 149.885 150.768 150.637 151.184C151.405 151.6 152.277 151.968 153.253 152.288C154.229 152.592 155.221 152.92 156.229 153.272C157.253 153.624 158.253 154.024 159.229 154.472C160.205 154.92 161.069 155.488 161.821 156.176C162.589 156.864 163.205 157.704 163.669 158.696C164.133 159.688 164.365 160.896 164.365 162.32C164.365 163.856 164.101 165.296 163.573 166.64C163.045 167.984 162.277 169.16 161.269 170.168C160.277 171.16 159.045 171.944 157.573 172.52C156.117 173.096 154.453 173.384 152.581 173.384C151.477 173.384 150.397 173.272 149.341 173.048C148.301 172.84 147.301 172.544 146.341 172.16C145.397 171.76 144.509 171.28 143.677 170.72C142.845 170.16 142.101 169.536 141.445 168.848L143.077 166.16C143.221 165.936 143.405 165.76 143.629 165.632C143.853 165.504 144.101 165.44 144.373 165.44C144.741 165.44 145.149 165.616 145.597 165.968C146.045 166.304 146.581 166.68 147.205 167.096C147.845 167.496 148.613 167.872 149.509 168.224C150.405 168.56 151.477 168.728 152.725 168.728C154.757 168.728 156.325 168.232 157.429 167.24C158.549 166.248 159.109 164.88 159.109 163.136C159.109 162.16 158.877 161.368 158.413 160.76C157.949 160.136 157.333 159.616 156.565 159.2C155.813 158.784 154.949 158.432 153.973 158.144C152.997 157.856 152.005 157.552 150.997 157.232C149.989 156.896 148.997 156.512 148.021 156.08C147.045 155.632 146.173 155.056 145.405 154.352C144.653 153.632 144.045 152.752 143.581 151.712C143.117 150.656 142.885 149.344 142.885 147.776C142.885 146.528 143.125 145.32 143.605 144.152C144.101 142.984 144.813 141.952 145.741 141.056C146.685 140.144 147.845 139.416 149.221 138.872C150.597 138.328 152.165 138.056 153.925 138.056C155.909 138.056 157.725 138.368 159.373 138.992C161.037 139.616 162.469 140.504 163.669 141.656L162.301 144.344ZM202.904 155.72C202.904 158.28 202.488 160.64 201.656 162.8C200.824 164.96 199.648 166.824 198.128 168.392C196.624 169.944 194.808 171.16 192.68 172.04C190.568 172.92 188.216 173.36 185.624 173.36C183.048 173.36 180.696 172.92 178.568 172.04C176.456 171.16 174.64 169.944 173.12 168.392C171.6 166.824 170.424 164.96 169.592 162.8C168.76 160.64 168.344 158.28 168.344 155.72C168.344 153.16 168.76 150.8 169.592 148.64C170.424 146.48 171.6 144.616 173.12 143.048C174.64 141.48 176.456 140.256 178.568 139.376C180.696 138.496 183.048 138.056 185.624 138.056C188.216 138.056 190.568 138.496 192.68 139.376C194.808 140.256 196.624 141.48 198.128 143.048C199.648 144.616 200.824 146.48 201.656 148.64C202.488 150.8 202.904 153.16 202.904 155.72ZM197.168 155.72C197.168 153.736 196.896 151.952 196.352 150.368C195.824 148.784 195.056 147.44 194.048 146.336C193.056 145.232 191.848 144.384 190.424 143.792C189 143.2 187.4 142.904 185.624 142.904C183.864 142.904 182.272 143.2 180.848 143.792C179.424 144.384 178.208 145.232 177.2 146.336C176.192 147.44 175.416 148.784 174.872 150.368C174.328 151.952 174.056 153.736 174.056 155.72C174.056 157.72 174.328 159.512 174.872 161.096C175.416 162.68 176.192 164.024 177.2 165.128C178.208 166.216 179.424 167.056 180.848 167.648C182.272 168.224 183.864 168.512 185.624 168.512C187.4 168.512 189 168.224 190.424 167.648C191.848 167.056 193.056 166.216 194.048 165.128C195.056 164.024 195.824 162.68 196.352 161.096C196.896 159.512 197.168 157.72 197.168 155.72ZM229.025 168.296V173H209.057V138.44H214.673V168.296H229.025ZM246.361 168.464C247.689 168.464 248.873 168.24 249.913 167.792C250.969 167.344 251.857 166.72 252.577 165.92C253.313 165.12 253.873 164.16 254.257 163.04C254.641 161.904 254.833 160.648 254.833 159.272V138.44H260.425V159.272C260.425 161.304 260.097 163.184 259.441 164.912C258.801 166.64 257.873 168.136 256.657 169.4C255.441 170.648 253.961 171.632 252.217 172.352C250.489 173.056 248.537 173.408 246.361 173.408C244.185 173.408 242.225 173.056 240.481 172.352C238.753 171.632 237.281 170.648 236.065 169.4C234.849 168.136 233.913 166.64 233.257 164.912C232.617 163.184 232.297 161.304 232.297 159.272V138.44H237.913V159.248C237.913 160.624 238.105 161.88 238.489 163.016C238.873 164.136 239.425 165.104 240.145 165.92C240.865 166.72 241.745 167.344 242.785 167.792C243.841 168.24 245.033 168.464 246.361 168.464ZM291.997 143.12H281.221V173H275.629V143.12H264.829V138.44H291.997V143.12ZM302.447 173H296.807V138.44H302.447V173ZM343.107 155.72C343.107 158.28 342.691 160.64 341.859 162.8C341.027 164.96 339.851 166.824 338.331 168.392C336.827 169.944 335.011 171.16 332.883 172.04C330.771 172.92 328.419 173.36 325.827 173.36C323.251 173.36 320.899 172.92 318.771 172.04C316.659 171.16 314.843 169.944 313.323 168.392C311.803 166.824 310.627 164.96 309.795 162.8C308.963 160.64 308.547 158.28 308.547 155.72C308.547 153.16 308.963 150.8 309.795 148.64C310.627 146.48 311.803 144.616 313.323 143.048C314.843 141.48 316.659 140.256 318.771 139.376C320.899 138.496 323.251 138.056 325.827 138.056C328.419 138.056 330.771 138.496 332.883 139.376C335.011 140.256 336.827 141.48 338.331 143.048C339.851 144.616 341.027 146.48 341.859 148.64C342.691 150.8 343.107 153.16 343.107 155.72ZM337.371 155.72C337.371 153.736 337.099 151.952 336.555 150.368C336.027 148.784 335.259 147.44 334.251 146.336C333.259 145.232 332.051 144.384 330.627 143.792C329.203 143.2 327.603 142.904 325.827 142.904C324.067 142.904 322.475 143.2 321.051 143.792C319.627 144.384 318.411 145.232 317.403 146.336C316.395 147.44 315.619 148.784 315.075 150.368C314.531 151.952 314.259 153.736 314.259 155.72C314.259 157.72 314.531 159.512 315.075 161.096C315.619 162.68 316.395 164.024 317.403 165.128C318.411 166.216 319.627 167.056 321.051 167.648C322.475 168.224 324.067 168.512 325.827 168.512C327.603 168.512 329.203 168.224 330.627 167.648C332.051 167.056 333.259 166.216 334.251 165.128C335.259 164.024 336.027 162.68 336.555 161.096C337.099 159.512 337.371 157.72 337.371 155.72ZM377.868 138.44V173H375.012C374.58 173 374.212 172.928 373.908 172.784C373.604 172.624 373.316 172.368 373.044 172.016L354.06 147.632C354.108 148.096 354.14 148.56 354.156 149.024C354.188 149.472 354.204 149.888 354.204 150.272V173H349.26V138.44H352.188C352.428 138.44 352.628 138.456 352.788 138.488C352.964 138.504 353.124 138.544 353.268 138.608C353.412 138.672 353.548 138.768 353.676 138.896C353.804 139.024 353.94 139.184 354.084 139.376L373.092 163.784C373.044 163.288 373.004 162.8 372.972 162.32C372.956 161.84 372.948 161.392 372.948 160.976V138.44H377.868ZM404.176 144.344C404 144.632 403.816 144.848 403.624 144.992C403.432 145.12 403.192 145.184 402.904 145.184C402.6 145.184 402.256 145.056 401.872 144.8C401.504 144.544 401.04 144.264 400.48 143.96C399.936 143.64 399.288 143.352 398.536 143.096C397.784 142.824 396.888 142.688 395.848 142.688C394.888 142.688 394.04 142.808 393.304 143.048C392.584 143.288 391.976 143.624 391.48 144.056C390.984 144.488 390.608 145 390.352 145.592C390.112 146.168 389.992 146.8 389.992 147.488C389.992 148.368 390.224 149.104 390.688 149.696C391.152 150.272 391.76 150.768 392.512 151.184C393.28 151.6 394.152 151.968 395.128 152.288C396.104 152.592 397.096 152.92 398.104 153.272C399.128 153.624 400.128 154.024 401.104 154.472C402.08 154.92 402.944 155.488 403.696 156.176C404.464 156.864 405.08 157.704 405.544 158.696C406.008 159.688 406.24 160.896 406.24 162.32C406.24 163.856 405.976 165.296 405.448 166.64C404.92 167.984 404.152 169.16 403.144 170.168C402.152 171.16 400.92 171.944 399.448 172.52C397.992 173.096 396.328 173.384 394.456 173.384C393.352 173.384 392.272 173.272 391.216 173.048C390.176 172.84 389.176 172.544 388.216 172.16C387.272 171.76 386.384 171.28 385.552 170.72C384.72 170.16 383.976 169.536 383.32 168.848L384.952 166.16C385.096 165.936 385.28 165.76 385.504 165.632C385.728 165.504 385.976 165.44 386.248 165.44C386.616 165.44 387.024 165.616 387.472 165.968C387.92 166.304 388.456 166.68 389.08 167.096C389.72 167.496 390.488 167.872 391.384 168.224C392.28 168.56 393.352 168.728 394.6 168.728C396.632 168.728 398.2 168.232 399.304 167.24C400.424 166.248 400.984 164.88 400.984 163.136C400.984 162.16 400.752 161.368 400.288 160.76C399.824 160.136 399.208 159.616 398.44 159.2C397.688 158.784 396.824 158.432 395.848 158.144C394.872 157.856 393.88 157.552 392.872 157.232C391.864 156.896 390.872 156.512 389.896 156.08C388.92 155.632 388.048 155.056 387.28 154.352C386.528 153.632 385.92 152.752 385.456 151.712C384.992 150.656 384.76 149.344 384.76 147.776C384.76 146.528 385 145.32 385.48 144.152C385.976 142.984 386.688 141.952 387.616 141.056C388.56 140.144 389.72 139.416 391.096 138.872C392.472 138.328 394.04 138.056 395.8 138.056C397.784 138.056 399.6 138.368 401.248 138.992C402.912 139.616 404.344 140.504 405.544 141.656L404.176 144.344Z" fill="black"/>
</svg>
