<svg width="624" height="624" viewBox="0 0 624 624" fill="none" xmlns="http://www.w3.org/2000/svg">
<g clip-path="url(#clip0_1269_25)">
<rect width="624" height="624" fill="black"/>
<mask id="mask0_1269_25" style="mask-type:alpha" maskUnits="userSpaceOnUse" x="0" y="0" width="624" height="624">
<rect width="624" height="624" fill="#D9D9D9"/>
</mask>
<g mask="url(#mask0_1269_25)">
<path d="M227.312 253.464L216.512 225.48C216.192 224.648 215.856 223.688 215.504 222.6C215.152 221.48 214.816 220.296 214.496 219.048C213.824 221.64 213.136 223.8 212.432 225.528L201.632 253.464H227.312ZM246.704 279H239.504C238.672 279 238 278.792 237.488 278.376C236.976 277.96 236.592 277.432 236.336 276.792L229.904 260.184H199.04L192.608 276.792C192.416 277.368 192.048 277.88 191.504 278.328C190.96 278.776 190.288 279 189.488 279H182.288L209.792 210.216H219.2L246.704 279ZM280.703 271.608C283.551 271.608 286.095 271.128 288.335 270.168C290.575 269.208 292.463 267.864 293.999 266.136C295.567 264.408 296.751 262.344 297.551 259.944C298.383 257.544 298.799 254.904 298.799 252.024V210.216H308.063V252.024C308.063 255.992 307.423 259.672 306.143 263.064C304.895 266.456 303.087 269.4 300.719 271.896C298.383 274.36 295.519 276.296 292.127 277.704C288.735 279.112 284.927 279.816 280.703 279.816C276.479 279.816 272.671 279.112 269.279 277.704C265.887 276.296 263.007 274.36 260.639 271.896C258.271 269.4 256.447 266.456 255.167 263.064C253.919 259.672 253.295 255.992 253.295 252.024V210.216H262.559V251.976C262.559 254.856 262.959 257.496 263.759 259.896C264.591 262.296 265.775 264.36 267.311 266.088C268.879 267.816 270.783 269.176 273.023 270.168C275.295 271.128 277.855 271.608 280.703 271.608ZM343.809 243.528C346.497 243.528 348.865 243.208 350.913 242.568C352.993 241.896 354.721 240.968 356.097 239.784C357.505 238.568 358.561 237.128 359.265 235.464C359.969 233.8 360.321 231.96 360.321 229.944C360.321 225.848 358.977 222.76 356.289 220.68C353.601 218.6 349.569 217.56 344.193 217.56H334.017V243.528H343.809ZM375.585 279H367.329C365.633 279 364.385 278.344 363.585 277.032L345.729 252.456C345.185 251.688 344.593 251.144 343.953 250.824C343.345 250.472 342.385 250.296 341.073 250.296H334.017V279H324.753V210.216H344.193C348.545 210.216 352.305 210.664 355.473 211.56C358.641 212.424 361.249 213.688 363.297 215.352C365.377 217.016 366.913 219.032 367.905 221.4C368.897 223.736 369.393 226.36 369.393 229.272C369.393 231.704 369.009 233.976 368.241 236.088C367.473 238.2 366.353 240.104 364.881 241.8C363.441 243.464 361.665 244.888 359.553 246.072C357.473 247.256 355.105 248.152 352.449 248.76C353.633 249.432 354.657 250.408 355.521 251.688L375.585 279ZM421.468 253.464L410.668 225.48C410.348 224.648 410.012 223.688 409.66 222.6C409.308 221.48 408.972 220.296 408.652 219.048C407.98 221.64 407.292 223.8 406.588 225.528L395.788 253.464H421.468ZM440.86 279H433.66C432.828 279 432.156 278.792 431.644 278.376C431.132 277.96 430.748 277.432 430.492 276.792L424.06 260.184H393.196L386.764 276.792C386.572 277.368 386.204 277.88 385.66 278.328C385.116 278.776 384.444 279 383.644 279H376.444L403.948 210.216H413.356L440.86 279Z" fill="white"/>
<path d="M122.808 411.176V419H83.784V350.216H93.048V411.176H122.808ZM175.529 411.416L175.481 419H133.097V350.216H175.481V357.8H142.409V380.648H169.193V387.944H142.409V411.416H175.529ZM225.031 393.464L214.231 365.48C213.911 364.648 213.575 363.688 213.223 362.6C212.871 361.48 212.535 360.296 212.215 359.048C211.543 361.64 210.855 363.8 210.151 365.528L199.351 393.464H225.031ZM244.423 419H237.223C236.391 419 235.719 418.792 235.207 418.376C234.695 417.96 234.311 417.432 234.055 416.792L227.623 400.184H196.759L190.327 416.792C190.135 417.368 189.767 417.88 189.223 418.328C188.679 418.776 188.007 419 187.207 419H180.007L207.511 350.216H216.919L244.423 419ZM272.528 383.528C275.216 383.528 277.584 383.208 279.632 382.568C281.712 381.896 283.44 380.968 284.816 379.784C286.224 378.568 287.28 377.128 287.984 375.464C288.688 373.8 289.04 371.96 289.04 369.944C289.04 365.848 287.696 362.76 285.008 360.68C282.32 358.6 278.288 357.56 272.911 357.56H262.736V383.528H272.528ZM304.304 419H296.048C294.352 419 293.104 418.344 292.304 417.032L274.448 392.456C273.904 391.688 273.312 391.144 272.672 390.824C272.064 390.472 271.104 390.296 269.792 390.296H262.736V419H253.472V350.216H272.911C277.264 350.216 281.024 350.664 284.192 351.56C287.36 352.424 289.968 353.688 292.016 355.352C294.096 357.016 295.632 359.032 296.624 361.4C297.616 363.736 298.112 366.36 298.112 369.272C298.112 371.704 297.728 373.976 296.96 376.088C296.192 378.2 295.072 380.104 293.6 381.8C292.16 383.464 290.384 384.888 288.272 386.072C286.192 387.256 283.824 388.152 281.168 388.76C282.352 389.432 283.376 390.408 284.24 391.688L304.304 419ZM369.387 350.216V419H364.731C363.995 419 363.371 418.872 362.859 418.616C362.379 418.36 361.899 417.928 361.419 417.32L321.627 365.48C321.691 366.28 321.739 367.064 321.771 367.832C321.803 368.6 321.819 369.32 321.819 369.992V419H313.659V350.216H318.459C318.875 350.216 319.227 350.248 319.515 350.312C319.803 350.344 320.059 350.424 320.283 350.552C320.507 350.648 320.731 350.808 320.955 351.032C321.179 351.224 321.419 351.48 321.675 351.8L361.467 403.592C361.403 402.76 361.339 401.96 361.275 401.192C361.243 400.392 361.227 399.64 361.227 398.936V350.216H369.387ZM396.284 419H386.972V350.216H396.284V419ZM469.606 350.216V419H464.95C464.214 419 463.59 418.872 463.078 418.616C462.598 418.36 462.118 417.928 461.638 417.32L421.846 365.48C421.91 366.28 421.958 367.064 421.99 367.832C422.022 368.6 422.038 369.32 422.038 369.992V419H413.878V350.216H418.678C419.094 350.216 419.446 350.248 419.734 350.312C420.022 350.344 420.278 350.424 420.502 350.552C420.726 350.648 420.95 350.808 421.174 351.032C421.398 351.224 421.638 351.48 421.894 351.8L461.686 403.592C461.622 402.76 461.558 401.96 461.494 401.192C461.462 400.392 461.446 399.64 461.446 398.936V350.216H469.606ZM543.062 385.928V412.328C539.606 414.824 535.91 416.696 531.974 417.944C528.07 419.16 523.782 419.768 519.11 419.768C513.574 419.768 508.582 418.92 504.134 417.224C499.686 415.496 495.878 413.096 492.71 410.024C489.574 406.92 487.158 403.208 485.462 398.888C483.766 394.568 482.918 389.816 482.918 384.632C482.918 379.384 483.734 374.6 485.366 370.28C487.03 365.96 489.382 362.264 492.422 359.192C495.462 356.088 499.158 353.688 503.51 351.992C507.862 350.296 512.726 349.448 518.102 349.448C520.822 349.448 523.35 349.656 525.686 350.072C528.022 350.456 530.182 351.032 532.166 351.8C534.15 352.536 535.99 353.448 537.686 354.536C539.382 355.592 540.966 356.792 542.438 358.136L539.798 362.36C539.382 363 538.838 363.416 538.166 363.608C537.526 363.768 536.806 363.608 536.006 363.128C535.238 362.68 534.358 362.136 533.366 361.496C532.374 360.856 531.158 360.248 529.718 359.672C528.31 359.064 526.63 358.552 524.678 358.136C522.758 357.72 520.47 357.512 517.814 357.512C513.942 357.512 510.438 358.152 507.302 359.432C504.166 360.68 501.494 362.488 499.286 364.856C497.078 367.192 495.382 370.04 494.198 373.4C493.014 376.728 492.422 380.472 492.422 384.632C492.422 388.952 493.03 392.824 494.246 396.248C495.494 399.64 497.254 402.536 499.526 404.936C501.83 407.304 504.614 409.112 507.878 410.36C511.142 411.608 514.806 412.232 518.87 412.232C522.07 412.232 524.902 411.88 527.366 411.176C529.862 410.44 532.294 409.432 534.662 408.152V393.032H523.958C523.35 393.032 522.854 392.856 522.47 392.504C522.118 392.152 521.942 391.72 521.942 391.208V385.928H543.062Z" fill="white"/>
</g>
</g>
<defs>
<clipPath id="clip0_1269_25">
<rect width="624" height="624" fill="white"/>
</clipPath>
</defs>
</svg>
